<?xml version="1.0" encoding="UTF-8"?>
<svg id="Layer_1" xmlns="http://www.w3.org/2000/svg" version="1.1" viewBox="0 0 800 800">
  <!-- Generator: Adobe Illustrator 29.7.1, SVG Export Plug-In . SVG Version: 2.1.1 Build 8)  -->
  <defs>
    <style>
      .st0 {
        fill: #825b4e;
      }

      .st1 {
        fill: #694d42;
      }

      .st2 {
        fill: #b38a6d;
      }

      .st3 {
        fill: #212121;
      }

      .st4 {
        fill: #b3937c;
        isolation: isolate;
        opacity: .44;
      }

      .st5 {
        fill: #ffecb3;
      }
    </style>
  </defs>
  <path class="st1" d="M536.8,544.71c34.46,2.8,92.94-5.34,119.35-20.98,68.45-40.61,103.72-104.29,111.61-175.71,3.33-30.22-16.05-80.7-39.91-77.26-30.23,4.38-60.57,23.12-101.29,67.75-41.42,45.39-38.03,88.86-110.69,84.18"/>
  <path class="st4" d="M529.81,488.86c13.48,2.71,16.55,5.91,29.08,11.57,24.67,11.22,65.66-4.47,73.57-7.58,47.03-18.57,64.98-39.19,86.97-71.53s32.47-87.59,28.68-111.3c-2.6-16.36-5.46-28.43-9.93-37.34-3.3-1.62-6.74-2.43-10.25-1.94-30.23,4.38-60.57,23.12-101.29,67.75-41.42,45.39-38.03,88.86-110.69,84.18l10.97,64.21,2.91,1.98Z"/>
  <path class="st1" d="M745.96,298.06c-1.22-5.92-2.48-11.14-3.96-15.74l-36.63-.83.13-4.78c-10.77,4.22-21.92,10.62-33.82,19.5l17.62.46-1.06,41.18-41.18-1.06.55-19.89c-5.19,4.97-24.52,24.53-31.89,34.72l15.36.38-1.06,41.18-41.15-1.48c-4.85,6.79-9.94,12.8-16.11,17.7l-2.49,93.45c5.1.41,10.41.18,15.64-.41l1.02-37.99,41.18,1.06s-.6,19.1-.88,29.28c2.3-.81,12.27-4.84,15.58-6.33l.94-22.55,36.3.7c8.16-6.46,15.07-13.49,21.61-21.24l.45-34.78,23.41.72c2.66-4.88,5.12-10.08,7.31-15.43l-30.29-.87,1.06-41.18,41.54,1.11c1.1-5.38,1.93-10.59,2.53-15.56l-43.66-1.19,1.06-41.18,40.9,1.04h0ZM628.43,449.98l-41.18-1.06,1.06-41.18,41.18,1.06-1.06,41.18ZM685.27,451.5l-41.18-1.06,1.06-41.18,41.18,1.06-1.06,41.18ZM686.73,394.68l-41.18-1.06,1.06-41.18,41.18,1.06-1.06,41.18Z"/>
  <path class="st0" d="M108.5,51.44c-6.44-1-12.87-1.75-19.38-2.13-2.69-.19-5.62-.25-7.94,1.13-1.94,1.13-3.19,3.12-4.19,5.12-5.64,11.06-6.3,23.99-1.81,35.56,1.13,2.81,3.31,5.94,6.25,5.44,1.19-.19,2.13-.94,3.06-1.69,9.24-7.22,17.78-15.3,25.5-24.12,1.31-1.5,2.56-3.94,1-5.25"/>
  <path class="st1" d="M358.81,637.81c-54.06,26.19-89.88,56.75-127.38,94.25-2.81,2.81-14.56,15.62-7.31,19.5,7.25,3.88,25.19-9.25,30.31-5.81,6.12,4.06,1.62,11.25,8.06,15.88s23.75-8.87,32.5-4.94,4.87,10.69,10,16.69c6.69,7.88,21.56.56,25.56-2.62,23.56-18.63,82.25-74.56,92.62-86.63,13.75-16,22.5-37.5,10.25-51.75"/>
  <path class="st1" d="M176.63,620.06c-32.03,10.17-62.89,23.7-92.06,40.37-6.06,3.44-12.06,7.12-17.06,11.94-2.19,2.06-4.56,5.75-2.38,7.81,5,4.56,14.56-2.87,21.81,2.81,2.5,2,1.06,10.62,2.94,13.25,2,2.75,5.81,3.75,9.25,3.5s6.69-1.56,10-2.56c7.31-2.19,14.81-3.56,19.62,2.19,3,3.63,2.81,7,4.75,10.87,1.31,2.69,3.5,4.81,8.94,4.75,8.25-.06,15.81-3.81,22.62-8.37,30.75-20.63,59.69-43.63,88.63-66.56"/>
  <path class="st0" d="M295.62,77.38c21.62,6.06,27-.13,43.25,1.13,20.81,1.56,18.31,21.25,15.25,32.13-3.94,13.94-11.69,25.25-22.75,34.56-1.87,1.56-4,3.19-6.5,3.38-2.94.25-5.63-1.56-7.87-3.44-14.75-12.06-24.13-30.5-25.19-49.5"/>
  <path class="st2" d="M76,257s-38.31,4.44-51.75,45.56c-19.69,60.12,32.63,95,32.63,95,0,0-14.38,123.19,60.69,190.69,75.06,67.5,99.56,70,187.31,86.06s169.56-40.5,190.69-63.25,54-70.19,59.88-129.19c5.88-58.94-46.37-162.13-93.63-216s-144.31-137.37-144.31-137.37l-140,130.5-101.5-2Z"/>
  <path class="st2" d="M301.69,82.69c-34.94-49-73.75-58.69-116.44-58.69-46.06,0-89.75,33.81-109.87,60.56-16.25,21.69-36.5,56.94-39.38,97.5-2.25,31.88,7.88,61.69,39.38,83.75,31.5,22.06,156.69,48.37,208.06,13.06,45-30.94,60.25-72.5,55.75-107.38-3.19-25.06-10.44-50.87-37.5-88.81h0Z"/>
  <path class="st5" d="M97.62,204.69c-3.25,22.75,6.81,57,15.25,56.5,7-.44,8.62-14.31,8.62-14.31,0,0,6,17.75,17,16.62,10.5-1.13,10-38.69,12.69-57.06l-35.63-14.56-17.94,12.81h0Z"/>
  <path class="st3" d="M82.15,85.18c5.08-2.22,13.76,2.51,16.8,9.46,3.24,7.41.72,19.14-6.46,20.71-7.1,1.55-15.67-2.84-14.44-5.45,1.05-2.23,8.29-2.63,9.21-7.14.17-.83.03-1.45-.2-2.41-1.49-6.42-8.52-8.24-8.19-11.69.2-2.1,2.98-3.36,3.27-3.48Z"/>
  <path class="st0" d="M233.99,397.44c-72.93-42.54-60.2-121.28-80.55-144.6-6.91-7.99-14.49-11.14-21.93-17.2-6.84-5.55-14.82-11.4-23.5-9.87,4.74,4.87,8.75,10.54,11.62,16.74-8.12-.84-20.14-2.29-25.09,1.93-.85.72-.21,2.25.67,2.95.88.69,13.49,5.77,17.61,12.1-4.89,2.7-10.27,4.65-14.73,8.01-2.56,1.9-.96,3.76-.16,4.18,5.32,2.69,11.81,3.06,16.55,6.72,4.74,3.65,7.6,9.28,11.55,13.67,4.84,5.42,11.31,9.14,18.43,10.61,6.71,26.96,17.82,50.56,33.92,73.13,14.86,20.85,35.01,37.69,59.23,47.45,76.19,30.71,127.88-42.64,127.88-42.64,0,0-69.52,52.97-131.51,16.82Z"/>
  <path class="st3" d="M136.25,115.31c-3.12-4.12-9.06-4.69-12.87-1.25-9.56,8.69-18.81,16.69-22.81,23.06-2.63,4.31-4.94,13,.13,19.19,5.06,6.19,21,19.12,21,19.12,0,0,20.19-9.44,26.44-13.87,7.56-5.44,9.25-17,2.81-26.56-2.56-3.81-9.69-13.06-14.69-19.69h0Z"/>
  <path class="st3" d="M174.59,201.82c5.25-8.19-5.56-13.91-9-9.91-3.88,4.44-5.84,13.96-19.91,9.02-7.81-2.75-13.06-5.25-16.06-14.19-2.13-6.38-1.37-14.94-1.31-21.56,0-3-13.37-3.31-14.25-.81-1.81,5.12-1.69,10.44-1.87,15.81-.19,5.94-1,13-6.06,16.12-16.5,10.44-22.03-12.93-23.97-14.74-.81-.75-6.91,11.8-5.28,16.99,7.75,25.06,35.44,20.5,43.38,8.5,1.44,10,33.41,27.45,54.34-5.24h0Z"/>
  <path class="st0" d="M49.44,391.56c1.06.94,2.44,2.38,3.44,3.19,2.63,2.19,6.5,2,8.94-.44,2.81-2.94,6.19-8.12,8.31-15.06,4.12-13.19,2.63-31.63-5.37-44.88l-7.5,7.63c5.75,18.25,3.5,33.81-2.31,43.56-2.31,3.81-5.38,5.69-5.5,6Z"/>
  <path class="st0" d="M249.8,244.69l-8.71,19.71c19.64,1.61,47.59-31.32,47.59-31.32l-4.85,24.85c27.22-8.26,51.61-62.71,51.61-62.71-3.48,28.12-13.68,90.22-98.65,83.93-30.8-2.24-59.67-21.06-59.67-21.06,0,0,47.28,6.52,72.68-13.4h0Z"/>
  <path class="st0" d="M43.31,293.81c10.63-16.62,29.37-21.81,44.62-19.44.69.13,2.56.81,3.06,1.25,1,.94.56,2.75-.56,3.63-1.06.87-2.56,1.06-3.87,1.44-7.63,1.87-14.5,7.69-15.81,15.44,5.44-2.25,11.94-1.75,17,1.19,1.38.81,2.88,2.44,2.06,3.87-.44.81-1.5,1.13-2.44,1.44-6.62,2.13-11.12,9.06-12.19,15.94,3.56-.75,7.25-1.56,10.87-.94s8.44,3.69,8.06,6.5c-.44,3-8.56,1-12.25,7.44-2.56,4.5-3.94,9.94-7.94,13.19-3.69,3-9,3.63-13.56,2.25-4.56-1.31-8.5-4.38-11.63-7.94-10.69-12.19-13-31-5.44-45.25"/>
  <path class="st3" d="M239.83,126.12c-4.88,5.34-16.47,4.37-22.55-2.25-6.48-7.05-8.1-22.3-.59-27.99,7.42-5.63,18.75-4.99,18.36-1.24-.33,3.2-8.35,7.54-7.67,13.38.12,1.07.52,1.73,1.14,2.75,4.12,6.82,12.74,5.21,13.68,9.48.57,2.59-2.08,5.57-2.36,5.87Z"/>
</svg>