<?xml version="1.0" encoding="UTF-8"?>
<svg id="Layer_1" xmlns="http://www.w3.org/2000/svg" version="1.1" viewBox="0 0 397.22 397.63">
  <!-- Generator: Adobe Illustrator 29.1.0, SVG Export Plug-In . SVG Version: 2.1.0 Build 142)  -->
  <defs>
    <style>
      .st0 {
        fill: #020202;
      }

      .st1 {
        fill: #010201;
      }

      .st2 {
        display: none;
      }

      .st3 {
        fill: #f6c3cb;
      }

      .st4 {
        fill: #8bc86e;
      }

      .st5 {
        fill: #ff8bc5;
      }
    </style>
  </defs>
  <g>
    <path class="st4" d="M90.23,353.87C25.05,309.81-9.76,239.48,2.2,174.53c7.34-39.86,38.35-82.44,52.62-96.63C50.83,24.54,78.86.39,113.08,0c34-.39,56.61,37.64,57.52,39.22,5.94-1.71,17.26-4.44,25.67-5.06,14.36-1.06,22.38,2.17,30.81,4.36C240.68,13.79,266.1-1.21,291.41.72c33.53,2.56,62.71,34.48,62.19,74.6.61,6.45-1.18,12.64-5.37,18.57,9.32,9.34,49.63,51.8,48.75,114.53-.9,64.57-30,121.63-96.72,147.95-4,23.4-22.97,42.46-43.26,41.34-15.32-.84-27.84-13.99-34.52-29.34-7.82,1.17-50.16,3.59-57.23-.07-5.31,18.42-22.24,30.45-39.45,29.34-20.34-1.32-37.46-20.75-35.56-43.76Z"/>
    <path class="st4" d="M286.71,365.14"/>
    <path class="st1" d="M273.48,154.72c3.81-4.6,10.99-3.15,12.19,2.52.57,2.67-6.83,17.2-8.04,22.15-1.37,5.6-4.44,18.72,3.27,20.91,15.09,4.29,22.28-22.69,27.23-31.71,4.62-8.43,13.51-5.56,12.57,3.16-.91,8.47-13.54,29.58-20.33,35.13-18.08,14.78-39.03,3.63-37.3-19.81.5-6.74,6.33-27.41,10.41-32.35Z"/>
    <path class="st1" d="M86.55,209.83c-4.41-3.1-20.83-18.8-21.96-23.3-1.26-4.99,2.76-9.6,7.87-8.12,2.94.85,12.97,13.54,16.66,16.72,6.18,5.32,13.89,11.75,22.31,7.79,8.19-3.85-.62-18.04-3.97-22.96-2.76-4.06-12.16-12.86-12.91-15.9-1.21-4.97,1.81-8.98,6.99-8.2s19.38,19.97,21.9,25.12c14.44,29.46-11.76,46.5-36.9,28.87Z"/>
    <path class="st2" d="M108.1,37.45c34.78-11.3,33.1,44.08,3.28,44.78-24.51.58-24.56-37.87-3.28-44.78Z"/>
    <path class="st2" d="M270.04,38.93c25.85-5.36,40.97,35.07,18.03,43.37-29.1,10.53-45.03-37.77-18.03-43.37Z"/>
    <path class="st0" d="M224.44,85.16c11.21-.25,13.82-1.7,16.78-3.19,2.35.67,1.43,7.49.03,11.65-4.54,13.47-22.56,23.2-39.49,23.94-24.86,1.1-41.33-17.44-45.18-24.78-.97-1.85-3.07-5.85-1.37-8.65,1.34-2.2,4.6-2.94,7.08-2.62,4.98.65,11.24,2.83,14.52,3.13,7.83.71,10.66-4.2,23.35-3.8,9.87.32,17.29,3.96,24.29,4.32Z"/>
    <path class="st3" d="M92.81,91.3c8.08-2.11,19.05-1.24,26.28,3.09,14.76,8.85,7.14,19.81-6.56,23.01-10.45,2.44-34-1.23-32.91-15.65.4-5.36,8.66-9.27,13.19-10.46Z"/>
    <path class="st3" d="M307.58,106.42c1.45,18.18-49.88,20.63-47.5-.82.59-5.31,8.9-8.62,19.7-9.82,15.8-1.76,27.04,4.61,27.79,10.64Z"/>
  </g>
  <path d="M102.47,28.35c-4.91,1.58-8.56,8.77-6.9,13.51,2.53,7.22,17.33,8.59,17.25,8.91-.09.36-17-6.74-22.71-.86-2.95,3.03-2.78,9.37,0,12.93,7.16,9.16,35.7,5.1,39.38-6.9,3.61-11.78-16.89-30.84-27.02-27.59Z"/>
  <path d="M295.47,29.4c4.91,1.58,8.56,8.77,6.9,13.51-2.53,7.22-17.33,8.59-17.25,8.91.09.36,17-6.74,22.71-.86,2.95,3.03,2.78,9.37,0,12.93-7.16,9.16-35.7,5.1-39.38-6.9-3.61-11.78,16.89-30.84,27.02-27.59Z"/>
  <path class="st5" d="M216.53,105.68c0,6.67-33.84,6.67-33.84,0s7.58-12.07,16.92-12.07,16.92,5.4,16.92,12.07Z"/>
</svg>