<svg id="Layer_1" data-name="Layer 1" xmlns="http://www.w3.org/2000/svg" viewBox="0 0 783.98 874.91"><defs><style>.cls-1{fill:#3d3838;}.cls-2{fill:#3bbc3b;}.cls-3{fill:#008900;}.cls-4{fill:#3a3737;}.cls-5{fill:#fab535;}</style></defs><path class="cls-1" d="M488.81,262a3,3,0,0,0,2.05-1.44,92.25,92.25,0,0,1,33.32-23.22c.45-.18.91-.37,1.37-.53a2.69,2.69,0,0,0,2-2.68,107.9,107.9,0,0,1,2.1-13.1,155.71,155.71,0,0,1,18.92-48.15c13.64-23,31.81-41.77,53.72-57a293.3,293.3,0,0,1,38.16-22.29c13.12-6.45,26.35-12.65,40-17.85a208.73,208.73,0,0,1,36.42-10.47,181.58,181.58,0,0,1,36-2.66,294.67,294.67,0,0,1,42.53,4.29c16.51,2.69,32.71,6.78,48.9,10.88a140.85,140.85,0,0,0,22.12,4,67,67,0,0,0,16.19-.26c1.1-.17,2.2-.25,3.3-.34a5.54,5.54,0,0,1,5.83,7c-.73,2.73-1.37,5.48-2.1,8.21a298.4,298.4,0,0,1-56,110.74C808.31,238.72,778,264.56,742,283.59c-16.12,8.52-32.85,15.55-50.57,20.06a185.9,185.9,0,0,1-57,5.8,151.06,151.06,0,0,1-48-10.49,125.63,125.63,0,0,1-44-29.64c-2.59-2.69-1.88-2.27-4.88-.85a109.39,109.39,0,0,0-21.63,13.29,68,68,0,0,0-19.25,23.48,7.78,7.78,0,0,0-.88,4.22c.53,7.11,1.07,14.23.9,21.37-.09,3.69-.23,7.38-.39,11.06-.06,1.18.27,1.77,1.72,1.61,4.4-.45,8.8-.94,13.21-1.3a275.65,275.65,0,0,1,38.34-.76c7.37.41,14.72,1,22.05,1.82,8.18,1,16.33,2.2,24.4,3.82a305.6,305.6,0,0,1,61.11,19c26.13,11.28,50.25,25.83,71.83,44.45a254.14,254.14,0,0,1,52.57,63.31A291.63,291.63,0,0,1,815.63,561a315.59,315.59,0,0,1,6.72,49.64,292.86,292.86,0,0,1-.35,39.08c-4.28,55.45-22,106.1-54.43,151.43a321.79,321.79,0,0,1-109.08,96.39,313.23,313.23,0,0,1-80.8,30.35A358.79,358.79,0,0,1,541,934.29,436.83,436.83,0,0,1,467.38,937c-9.09-.44-18.18-.93-27.24-1.82-9.42-.92-18.81-2-28.19-3.39q-19-2.75-37.7-6.88a426,426,0,0,1-89.87-30.33c-28.27-13.34-54.59-29.79-78.18-50.38-38.83-33.89-66.8-75.14-83.29-124a283.66,283.66,0,0,1-11-44.7A297.06,297.06,0,0,1,108.51,610c2.49-43.48,13.72-84.53,35-122.67a261.3,261.3,0,0,1,49.25-62.73c30.33-28.67,65.29-49.94,104.16-64.93a317.71,317.71,0,0,1,53.76-15.43,300.89,300.89,0,0,1,66-5.54,264.82,264.82,0,0,1,41.76,4.4,26.45,26.45,0,0,0,2.92.36.73.73,0,0,0,.83-.92c-.39-3.3-.68-6.61-1.23-9.88a221.61,221.61,0,0,0-51.12-109.53A212.48,212.48,0,0,0,383.31,197c-.95-.79-1.92-1.54-2.82-2.37a4.74,4.74,0,0,1-1.17-6.3,6.69,6.69,0,0,1,2.46-2.68c7.61-5,15.22-10,23.56-13.7a64.4,64.4,0,0,1,14-4.52,20.74,20.74,0,0,1,13.56,2.13,41.15,41.15,0,0,1,8.7,6.18,133.05,133.05,0,0,1,30,38.5A189.42,189.42,0,0,1,487.8,258C488.11,259.28,488.45,260.57,488.81,262Zm-5.06,664.4a424.66,424.66,0,0,0,51.91-2.79c10.14-1.18,20.22-2.69,30.23-4.68a329.57,329.57,0,0,0,35-8.9,301.76,301.76,0,0,0,59.39-25.86,312.8,312.8,0,0,0,64.38-49.07,302.62,302.62,0,0,0,35.44-41.94,285.38,285.38,0,0,0,31.09-56.84,281.08,281.08,0,0,0,17.9-66.77,286.24,286.24,0,0,0,2.82-32.68,308.88,308.88,0,0,0-1.65-42.36q-1.53-13.18-4.18-26.2a279.5,279.5,0,0,0-28.51-79.14,255.53,255.53,0,0,0-47.42-62.29,246,246,0,0,0-32.31-26.26,277.17,277.17,0,0,0-76.48-35.94,287.24,287.24,0,0,0-51.94-10.57c-9.66-1.06-19.33-1.88-29-2-8.49-.1-17,0-25.45.71-3.91.33-7.83.73-11.74,1.14-2.32.24-4.63.58-6.95.85-1.18.13-1.62.78-1.82,1.91a123.54,123.54,0,0,1-5.31,19.93c-.12.34-.27.69-.37,1a.68.68,0,0,0,.75.92c.72-.16,1.42-.36,2.13-.57a75,75,0,0,1,15.18-2.94,89.12,89.12,0,0,1,21,.54,82.44,82.44,0,0,1,32.82,12.51,12.54,12.54,0,0,1,2.05,1.55,5.64,5.64,0,0,1-.77,8.68,4.09,4.09,0,0,1-4.51.46c-1.09-.57-2.12-1.25-3.16-1.9-14.16-8.75-29.46-12.66-46.11-11.1a69.54,69.54,0,0,0-27,8.14,6.38,6.38,0,0,1-6.3.18c-1-.49-2-1-2.94-1.54a101.12,101.12,0,0,0-37.1-11.55,85.49,85.49,0,0,0-37.47,4.06,11.3,11.3,0,0,1-3.55.94,4.22,4.22,0,0,1-3.31-1.31c-2.07-2.2-2.47-6.81,1.2-8.93a18.78,18.78,0,0,1,3.4-1.42A87.46,87.46,0,0,1,416.25,370a101.9,101.9,0,0,1,32.59,2.53c4.3,1.08,8.53,2.33,12.72,3.77,1.34.46,1.87.11,1.87-1.28q.06-8.49,0-17c0-3.25-.09-2.88-3.05-3.51A214.2,214.2,0,0,0,427.55,350a294.77,294.77,0,0,0-55.23,1.88,299,299,0,0,0-31.18,5.62,311.21,311.21,0,0,0-109.73,50,280.82,280.82,0,0,0-57.92,55.42,249.81,249.81,0,0,0-46,94.06,291.11,291.11,0,0,0-6.75,37c-1,8.8-1.62,17.63-1.89,26.47A278.75,278.75,0,0,0,120,652.83q.92,10.67,2.64,21.22a291,291,0,0,0,8.52,36.59,260.12,260.12,0,0,0,30.06,65.48,279.76,279.76,0,0,0,54.7,62A322.21,322.21,0,0,0,279.17,880,400.25,400.25,0,0,0,335,903a450.06,450.06,0,0,0,59.26,15.06c10.76,2,21.58,3.53,32.46,4.79,9.53,1.11,19.07,2,28.64,2.57C465.43,926.06,475.5,926.63,483.75,926.39Zm10.12-637.78c2.47-2.91,4.45-5.39,6.6-7.72a84,84,0,0,1,10.26-8.95c9.09-7.07,19.25-12.23,29.8-16.72a3.52,3.52,0,0,1,3.48.3,9.69,9.69,0,0,1,2,1.66c1.49,1.63,2.84,3.4,4.4,4.95,2.18,2.16,4.53,4.14,6.76,6.26a98,98,0,0,0,15.54,11.74,116,116,0,0,0,14,7.47,123.05,123.05,0,0,0,26.59,8.46c3.36.67,6.75,1.18,10.15,1.61a139.63,139.63,0,0,0,14.27,1.21c4.66.12,9.31-.17,14-.47A186.42,186.42,0,0,0,672,296a220.16,220.16,0,0,0,27.48-6.71,224.4,224.4,0,0,0,26.43-10.22,246.24,246.24,0,0,0,32.59-17.91,264.14,264.14,0,0,0,34.9-27,290.54,290.54,0,0,0,22.48-22.87c4.9-5.67,9.69-11.42,14.21-17.39a259.06,259.06,0,0,0,15-21.87q4.7-7.72,9-15.64c4.09-7.45,7.71-15.09,11.08-22.87,2.25-5.19,4.32-10.44,6.3-15.73,2.81-7.47,5.19-15.08,7.27-22.78a5.51,5.51,0,0,0,.2-1.45,1,1,0,0,0-.84-1.06,10.12,10.12,0,0,0-1.83-.13c-5.27-.08-10.56.2-15.8-.78-3.73-.69-7.53-1-11.23-1.8-5.4-1.13-10.73-2.53-16.1-3.79-7-1.65-14.07-3.35-21.13-4.9q-8.41-1.85-16.92-3.37c-5.06-.9-10.15-1.67-15.25-2.34-4.61-.61-9.24-1.23-13.88-1.42-5.89-.24-11.78-.72-17.65-.69-5.14,0-10.28.57-15.44.63a2.31,2.31,0,0,0-.37,0c-4.81.91-9.71,1.16-14.55,2a162.51,162.51,0,0,0-20.36,4.86c-13.28,4.11-26,9.66-38.54,15.61-9.21,4.38-18.35,8.89-27.28,13.85A258.12,258.12,0,0,0,604.94,127a190,190,0,0,0-17.61,14.51,164.68,164.68,0,0,0-18.94,21.08,169.76,169.76,0,0,0-15.84,25.25,137.1,137.1,0,0,0-9.84,25,120.81,120.81,0,0,0-4.15,19.77c-.24,2.07-.51,4.13-.67,6.21-.24,3.18-1.53,5.65-4.9,6.57a28.91,28.91,0,0,0-2.74,1.09,79,79,0,0,0-37,28.08,5,5,0,0,0-1.12,3.38A57.42,57.42,0,0,0,493.87,288.61ZM393.74,190.93c.2.93,1,1.39,1.61,2,2.7,2.5,5.5,4.91,8.13,7.48a150.83,150.83,0,0,1,11.44,12c2.34,2.84,5,5.42,7.28,8.31,5.59,7.16,11,14.43,15.88,22.13a250.71,250.71,0,0,1,17.74,33.51,213.65,213.65,0,0,1,11.07,32,218,218,0,0,1,5.53,27.75c.29,2.31.44,4.63.72,6.94a137.76,137.76,0,0,1,1.31,16.48q0,7.2,0,14.39a17.83,17.83,0,0,1-.48,5.49,3.39,3.39,0,0,0,0,1.45.8.8,0,0,0,.48.47c.2.07.56.06.66-.07a6,6,0,0,0,1-1.5,113.08,113.08,0,0,0,6.4-19.57A121.57,121.57,0,0,0,485,346.39c.54-5,1.34-10,1.29-15-.09-7.85.33-15.7-.61-23.56-.53-4.49-1-9-1.52-13.5-.6-5.37-1.63-10.66-2.7-15.94-1.4-6.84-3.08-13.62-4.82-20.39a181.4,181.4,0,0,0-13.47-36.55,134.18,134.18,0,0,0-25.42-35,41.87,41.87,0,0,0-7.56-5.85,15.12,15.12,0,0,0-9.12-2.35,29.41,29.41,0,0,0-8.53,2.12,85.3,85.3,0,0,0-13.71,7.13C397.11,188.55,395.11,189.28,393.74,190.93Z" transform="translate(-108.01 -62.54)"/><path class="cls-2" d="M493.87,288.61A57.42,57.42,0,0,1,492.11,278a5,5,0,0,1,1.12-3.38,79,79,0,0,1,37-28.08A28.91,28.91,0,0,1,533,245.4c3.37-.92,4.66-3.39,4.9-6.57.16-2.08.43-4.14.67-6.21a120.81,120.81,0,0,1,4.15-19.77,137.1,137.1,0,0,1,9.84-25,169.76,169.76,0,0,1,15.84-25.25,164.68,164.68,0,0,1,18.94-21.08A190,190,0,0,1,604.94,127a258.12,258.12,0,0,1,26.83-16.8c8.93-5,18.07-9.47,27.28-13.85,12.53-5.95,25.26-11.5,38.54-15.61A162.51,162.51,0,0,1,718,75.91c4.84-.83,9.74-1.08,14.55-2a2.31,2.31,0,0,1,.37,0c5.16-.06,10.3-.6,15.44-.63,5.87,0,11.76.45,17.65.69,4.64.19,9.27.81,13.88,1.42,5.1.67,10.19,1.44,15.25,2.34q8.49,1.52,16.92,3.37c7.06,1.55,14.09,3.25,21.13,4.9,5.37,1.26,10.7,2.66,16.1,3.79,3.7.78,7.5,1.11,11.23,1.8,5.24,1,10.53.7,15.8.78a10.12,10.12,0,0,1,1.83.13,1,1,0,0,1,.84,1.06,5.51,5.51,0,0,1-.2,1.45c-2.08,7.7-4.46,15.31-7.27,22.78-2,5.29-4.05,10.54-6.3,15.73-3.37,7.78-7,15.42-11.08,22.87q-4.33,7.92-9,15.64a259.06,259.06,0,0,1-15,21.87c-4.52,6-9.31,11.72-14.21,17.39a290.54,290.54,0,0,1-22.48,22.87,264.14,264.14,0,0,1-34.9,27,246.24,246.24,0,0,1-32.59,17.91,224.4,224.4,0,0,1-26.43,10.22A220.16,220.16,0,0,1,672,296a186.42,186.42,0,0,1-20.42,2.41c-4.66.3-9.31.59-14,.47a139.63,139.63,0,0,1-14.27-1.21c-3.4-.43-6.79-.94-10.15-1.61a123.05,123.05,0,0,1-26.59-8.46,116,116,0,0,1-14-7.47,98,98,0,0,1-15.54-11.74c-2.23-2.12-4.58-4.1-6.76-6.26-1.56-1.55-2.91-3.32-4.4-4.95a9.69,9.69,0,0,0-2-1.66,3.52,3.52,0,0,0-3.48-.3c-10.55,4.49-20.71,9.65-29.8,16.72a84,84,0,0,0-10.26,8.95C498.32,283.22,496.34,285.7,493.87,288.61Zm338.57-174.9c0-3.14-1.8-5-5-5.15a10.29,10.29,0,0,0-2.94.16,26.21,26.21,0,0,1-5.85.57,24.49,24.49,0,0,0-2.57.2c-2.79.38-5.57.81-8.36,1.19-4.24.58-8.54.9-12.73,1.73-6.72,1.34-13.47,2.51-20.17,4-12.2,2.77-24.28,6-36.2,9.75-9.12,2.91-18.24,5.82-27.17,9.28-8.35,3.24-16.71,6.45-25,9.94-8.82,3.73-17.56,7.65-26.24,11.69Q641.72,165.74,624,176A421.75,421.75,0,0,0,588,199c-6,4.31-11.89,8.68-17.61,13.32-3.72,3-7.44,6-11.1,9.1a46.89,46.89,0,0,0-4.25,4.09,4.31,4.31,0,0,0-1.27,4.38,5.67,5.67,0,0,0,8.59,3.13,16.25,16.25,0,0,0,1.79-1.29c2.23-1.93,4.38-3.94,6.66-5.81,4.55-3.74,9.08-7.51,13.76-11.08,9.29-7.06,18.94-13.6,28.82-19.82,9.46-6,19.1-11.61,29-16.8,12.62-6.61,25.35-13,38.46-18.62,9.82-4.2,19.59-8.5,29.59-12.27,11.94-4.5,24-8.79,36.19-12.42,4.11-1.22,8.25-2.36,12.38-3.5,9.1-2.51,18.29-4.61,27.55-6.45,5.64-1.11,11.3-2.17,17-3,5.09-.74,10.24-1,15.33-1.71a73.45,73.45,0,0,1,7.69-.69,7.65,7.65,0,0,0,2.13-.53A5.24,5.24,0,0,0,832.44,113.71Z" transform="translate(-108.01 -62.54)"/><path class="cls-3" d="M393.74,190.93c1.37-1.65,3.37-2.38,5.11-3.47a85.3,85.3,0,0,1,13.71-7.13,29.41,29.41,0,0,1,8.53-2.12,15.12,15.12,0,0,1,9.12,2.35,41.87,41.87,0,0,1,7.56,5.85,134.18,134.18,0,0,1,25.42,35A181.4,181.4,0,0,1,476.66,258c1.74,6.77,3.42,13.55,4.82,20.39,1.07,5.28,2.1,10.57,2.7,15.94.49,4.5,1,9,1.52,13.5.94,7.86.52,15.71.61,23.56.05,5-.75,10-1.29,15a121.57,121.57,0,0,1-2.47,13.74,113.08,113.08,0,0,1-6.4,19.57,6,6,0,0,1-1,1.5c-.1.13-.46.14-.66.07a.8.8,0,0,1-.48-.47,3.39,3.39,0,0,1,0-1.45,17.83,17.83,0,0,0,.48-5.49q0-7.2,0-14.39A137.76,137.76,0,0,0,473.14,343c-.28-2.31-.43-4.63-.72-6.94a218,218,0,0,0-5.53-27.75,213.65,213.65,0,0,0-11.07-32,250.71,250.71,0,0,0-17.74-33.51c-4.87-7.7-10.29-15-15.88-22.13-2.26-2.89-4.94-5.47-7.28-8.31a150.83,150.83,0,0,0-11.44-12c-2.63-2.57-5.43-5-8.13-7.48C394.73,192.32,393.94,191.86,393.74,190.93Z" transform="translate(-108.01 -62.54)"/><path class="cls-4" d="M832.44,113.71a5.24,5.24,0,0,1-3.77,5.27,7.65,7.65,0,0,1-2.13.53,73.45,73.45,0,0,0-7.69.69c-5.09.7-10.24,1-15.33,1.71-5.69.83-11.35,1.89-17,3-9.26,1.84-18.45,3.94-27.55,6.45-4.13,1.14-8.27,2.28-12.38,3.5-12.24,3.63-24.25,7.92-36.19,12.42-10,3.77-19.77,8.07-29.59,12.27-13.11,5.6-25.84,12-38.46,18.62-9.9,5.19-19.54,10.84-29,16.8-9.88,6.22-19.53,12.76-28.82,19.82-4.68,3.57-9.21,7.34-13.76,11.08-2.28,1.87-4.43,3.88-6.66,5.81a16.25,16.25,0,0,1-1.79,1.29,5.67,5.67,0,0,1-8.59-3.13,4.31,4.31,0,0,1,1.27-4.38,46.89,46.89,0,0,1,4.25-4.09c3.66-3.08,7.38-6.08,11.1-9.1,5.72-4.64,11.64-9,17.61-13.32A421.75,421.75,0,0,1,624,176q17.7-10.26,36.27-18.9c8.68-4,17.42-8,26.24-11.69,8.25-3.49,16.61-6.7,25-9.94,8.93-3.46,18-6.37,27.17-9.28,11.92-3.8,24-7,36.2-9.75,6.7-1.52,13.45-2.69,20.17-4,4.19-.83,8.49-1.15,12.73-1.73,2.79-.38,5.57-.81,8.36-1.19a24.49,24.49,0,0,1,2.57-.2,26.21,26.21,0,0,0,5.85-.57,10.29,10.29,0,0,1,2.94-.16C830.64,108.67,832.45,110.57,832.44,113.71Z" transform="translate(-108.01 -62.54)"/><path class="cls-5" d="M810.25,594.5q-1.53-13.18-4.18-26.2a279.5,279.5,0,0,0-28.51-79.14,255.53,255.53,0,0,0-47.42-62.29,246,246,0,0,0-32.31-26.26,277.17,277.17,0,0,0-76.48-35.94,287.24,287.24,0,0,0-51.94-10.57c-9.66-1.06-19.33-1.88-29-2-8.49-.1-17,0-25.45.71-3.91.33-7.83.73-11.74,1.14-2.32.24-4.63.58-6.95.85-1.18.13-1.62.78-1.82,1.91a123.54,123.54,0,0,1-5.31,19.93c-.12.34-.27.69-.37,1a.68.68,0,0,0,.75.92c.72-.16,1.42-.36,2.13-.57a75,75,0,0,1,15.18-2.94,89.12,89.12,0,0,1,21,.54,82.44,82.44,0,0,1,32.82,12.51,12.54,12.54,0,0,1,2.05,1.55,5.64,5.64,0,0,1-.77,8.68,4.09,4.09,0,0,1-4.51.46c-1.09-.57-2.12-1.25-3.16-1.9-14.16-8.75-29.46-12.66-46.11-11.1a69.54,69.54,0,0,0-27,8.14,6.38,6.38,0,0,1-6.3.18c-1-.49-2-1-2.94-1.54a101.12,101.12,0,0,0-37.1-11.55,85.49,85.49,0,0,0-37.47,4.06,11.3,11.3,0,0,1-3.55.94,4.22,4.22,0,0,1-3.31-1.31c-2.07-2.2-2.47-6.81,1.2-8.93a18.78,18.78,0,0,1,3.4-1.42A87.46,87.46,0,0,1,416.25,370a101.9,101.9,0,0,1,32.59,2.53c4.3,1.08,8.53,2.33,12.72,3.77,1.34.46,1.87.11,1.87-1.28q.06-8.49,0-17c0-3.25-.09-2.88-3.05-3.51A214.2,214.2,0,0,0,427.55,350a294.77,294.77,0,0,0-55.23,1.88,299,299,0,0,0-31.18,5.62,311.21,311.21,0,0,0-109.73,50,280.82,280.82,0,0,0-57.92,55.42,249.81,249.81,0,0,0-46,94.06,291.11,291.11,0,0,0-6.75,37c-1,8.8-1.62,17.63-1.89,26.47A278.75,278.75,0,0,0,120,652.83q.92,10.67,2.64,21.22a291,291,0,0,0,8.52,36.59,260.12,260.12,0,0,0,30.06,65.48,279.76,279.76,0,0,0,54.7,62A322.21,322.21,0,0,0,279.17,880,400.25,400.25,0,0,0,335,903a450.06,450.06,0,0,0,59.26,15.06c10.76,2,21.58,3.53,32.46,4.79,9.53,1.11,19.07,2,28.64,2.57,10.07.6,20.14,1.17,28.39.93a424.66,424.66,0,0,0,51.91-2.79c10.14-1.18,20.22-2.69,30.23-4.68a329.57,329.57,0,0,0,35-8.9,301.76,301.76,0,0,0,59.39-25.86,312.8,312.8,0,0,0,64.38-49.07,302.62,302.62,0,0,0,35.44-41.94,285.38,285.38,0,0,0,31.09-56.84,281.08,281.08,0,0,0,17.9-66.77,286.24,286.24,0,0,0,2.82-32.68A308.88,308.88,0,0,0,810.25,594.5Z" transform="translate(-108.01 -62.54)"/></svg>